<?xml version="1.0" encoding="UTF-8"?>
<!DOCTYPE svg PUBLIC "-//W3C//DTD SVG 1.1//EN" "http://www.w3.org/Graphics/SVG/1.1/DTD/svg11.dtd">
<svg xmlns="http://www.w3.org/2000/svg" version="1.1" width="315px" height="109px" style="shape-rendering:geometricPrecision; text-rendering:geometricPrecision; image-rendering:optimizeQuality; fill-rule:evenodd; clip-rule:evenodd" xmlns:xlink="http://www.w3.org/1999/xlink">
<g><path style="opacity:0.998" fill="#ff9a06" d="M 154.5,15.5 C 200.168,15.3333 245.835,15.5 291.5,16C 292.333,16.8333 293.167,17.6667 294,18.5C 294.667,42.1667 294.667,65.8333 294,89.5C 293.167,90.3333 292.333,91.1667 291.5,92C 245.833,92.6667 200.167,92.6667 154.5,92C 153.667,91.1667 152.833,90.3333 152,89.5C 151.333,65.8333 151.333,42.1667 152,18.5C 153.045,17.6266 153.878,16.6266 154.5,15.5 Z"/></g>
<g><path style="opacity:0.896" fill="#272727" d="M 40.5,30.5 C 46.9251,30.1304 53.2584,30.6304 59.5,32C 64.3832,34.3693 67.0499,38.2027 67.5,43.5C 64.1825,44.2209 60.8492,44.3876 57.5,44C 51.62,35.5063 45.4533,35.3396 39,43.5C 37.4941,48.7455 37.1608,54.0788 38,59.5C 42.6714,68.6726 49.1714,70.3392 57.5,64.5C 58.4656,62.604 58.7989,60.604 58.5,58.5C 55.1667,58.5 51.8333,58.5 48.5,58.5C 48.5,56.1667 48.5,53.8333 48.5,51.5C 55.1667,51.5 61.8333,51.5 68.5,51.5C 68.6662,57.5092 68.4995,63.5092 68,69.5C 60.0619,75.1854 51.2286,77.0188 41.5,75C 34.3333,73.1667 29.8333,68.6667 28,61.5C 23.9459,47.6346 28.1126,37.3012 40.5,30.5 Z"/></g>
<g><path style="opacity:0.894" fill="#282828" d="M 72.5,31.5 C 84.5,31.5 96.5,31.5 108.5,31.5C 108.5,33.8333 108.5,36.1667 108.5,38.5C 104.167,38.5 99.8333,38.5 95.5,38.5C 95.5,50.5 95.5,62.5 95.5,74.5C 92.1667,74.5 88.8333,74.5 85.5,74.5C 85.5,62.5 85.5,50.5 85.5,38.5C 81.1667,38.5 76.8333,38.5 72.5,38.5C 72.5,36.1667 72.5,33.8333 72.5,31.5 Z"/></g>
<g><path style="opacity:0.918" fill="#272727" d="M 118.5,31.5 C 122.555,31.1758 126.555,31.5091 130.5,32.5C 136.037,46.4053 141.704,60.2387 147.5,74C 143.514,74.4988 139.514,74.6655 135.5,74.5C 135.105,71.3138 134.105,68.3138 132.5,65.5C 127.208,64.5052 121.875,64.1718 116.5,64.5C 116.083,73.5755 111.417,76.7422 102.5,74C 108.33,60.0087 113.663,45.842 118.5,31.5 Z M 123.5,45.5 C 124.376,45.3691 125.043,45.7025 125.5,46.5C 126.638,49.913 127.971,53.2464 129.5,56.5C 126.216,57.657 122.882,57.8236 119.5,57C 121.135,53.2607 122.469,49.4274 123.5,45.5 Z"/></g>
<g><path style="opacity:1" fill="#fffaf5" d="M 162.5,31.5 C 165.572,31.1826 168.572,31.5159 171.5,32.5C 173.653,41.0782 175.486,49.7448 177,58.5C 179.488,49.8893 181.988,41.2227 184.5,32.5C 188.445,31.5091 192.445,31.1758 196.5,31.5C 198.057,40.6254 200.224,49.6254 203,58.5C 205.287,49.566 207.12,40.566 208.5,31.5C 211.898,31.1796 215.232,31.513 218.5,32.5C 214.95,46.4792 211.617,60.4792 208.5,74.5C 205.167,74.5 201.833,74.5 198.5,74.5C 195.683,64.188 192.849,53.8547 190,43.5C 187.049,53.7616 184.549,64.095 182.5,74.5C 178.833,74.5 175.167,74.5 171.5,74.5C 168.372,60.1939 165.372,45.8606 162.5,31.5 Z"/></g>
<g><path style="opacity:1" fill="#fffaf3" d="M 221.5,31.5 C 224.5,31.5 227.5,31.5 230.5,31.5C 230.5,33.8333 230.5,36.1667 230.5,38.5C 227.5,38.5 224.5,38.5 221.5,38.5C 221.5,36.1667 221.5,33.8333 221.5,31.5 Z"/></g>
<g><path style="opacity:1" fill="#fffcf8" d="M 246.5,31.5 C 246.169,38.8635 246.503,46.1968 247.5,53.5C 248.107,53.3764 248.44,53.0431 248.5,52.5C 250.945,49.7895 253.278,46.9562 255.5,44C 259.167,43.3333 262.833,43.3333 266.5,44C 262.607,47.39 259.273,51.2233 256.5,55.5C 260.293,61.5841 263.959,67.7507 267.5,74C 264.118,74.8236 260.784,74.657 257.5,73.5C 255.167,69.5 252.833,65.5 250.5,61.5C 249.522,61.9767 248.689,62.6433 248,63.5C 247.501,67.1516 247.335,70.8183 247.5,74.5C 244.5,74.5 241.5,74.5 238.5,74.5C 238.5,60.1667 238.5,45.8333 238.5,31.5C 241.167,31.5 243.833,31.5 246.5,31.5 Z"/></g>
<g><path style="opacity:1" fill="#ffd79d" d="M 246.5,31.5 C 247.167,38.5 247.833,45.5 248.5,52.5C 248.44,53.0431 248.107,53.3764 247.5,53.5C 246.503,46.1968 246.169,38.8635 246.5,31.5 Z"/></g>
<g><path style="opacity:1" fill="#fffaf3" d="M 271.5,31.5 C 274.5,31.5 277.5,31.5 280.5,31.5C 280.5,33.8333 280.5,36.1667 280.5,38.5C 277.5,38.5 274.5,38.5 271.5,38.5C 271.5,36.1667 271.5,33.8333 271.5,31.5 Z"/></g>
<g><path style="opacity:1" fill="#fffaf3" d="M 221.5,43.5 C 224.5,43.5 227.5,43.5 230.5,43.5C 230.5,53.8333 230.5,64.1667 230.5,74.5C 227.5,74.5 224.5,74.5 221.5,74.5C 221.5,64.1667 221.5,53.8333 221.5,43.5 Z"/></g>
<g><path style="opacity:1" fill="#fffaf3" d="M 271.5,43.5 C 274.5,43.5 277.5,43.5 280.5,43.5C 280.5,53.8333 280.5,64.1667 280.5,74.5C 277.5,74.5 274.5,74.5 271.5,74.5C 271.5,64.1667 271.5,53.8333 271.5,43.5 Z"/></g>
</svg>
